# xmcd
#
# Track frame offsets: 
#        150
#        17981
#        37471
#        55227
#        74773
#        89401
#        106229
#        123225
#        146381
#        163452
#        184105
#        198159
#        212915
#        226668
#        243918
#        257380
#        276261
#        289408
#        312356
#        335427
#
# Disc length: 4668 seconds
#
# Revision: 0
# Processed by: cddbd v1.5.2PL0 Copyright (c) Steve Scherf et al.
# Submitted via: ExactAudioCopy v0.99pb5
#
DISCID=35123a14
DTITLE=Angela Similea - Anii '80 vol.4
DYEAR=2010
DGENRE=Muzica Usoara
TTITLE0=Daca n-ai fi existat
TTITLE1=Eu
TTITLE2=O zi
TTITLE3=Adu-mi clipa de lumina
TTITLE4=Tu esti
TTITLE5=Ninsorile de flori
TTITLE6=Cand vei inceta sa ma iubesti
TTITLE7=Nostalgie
TTITLE8=Tu esti omul ideal
TTITLE9=Adio, dar raman mereu cu tine
TTITLE10=La revedere
TTITLE11=Balada iubirilor deschise
TTITLE12=Viata merge iubind inainte
TTITLE13=Cat as fi vrut
TTITLE14=Recheama-ma si-am sa revin
TTITLE15=Dor de viata
TTITLE16=Hai sa ne impacam
TTITLE17=Traiesc
TTITLE18=Ultimul tramvai
TTITLE19=Nu-mi lua iubirea
EXTD=
EXTT0=
EXTT1=
EXTT2=
EXTT3=
EXTT4=
EXTT5=
EXTT6=
EXTT7=
EXTT8=
EXTT9=
EXTT10=
EXTT11=
EXTT12=
EXTT13=
EXTT14=
EXTT15=
EXTT16=
EXTT17=
EXTT18=
EXTT19=
PLAYORDER=
